<?xml version="1.0" encoding="UTF-8"?>
<svg width="360" height="800" viewBox="0 0 360 800" fill="none" xmlns="http://www.w3.org/2000/svg">

<defs>
  <filter id="ds" x="-50%" y="-50%" width="200%" height="200%">
    <feDropShadow dx="0" dy="2" stdDeviation="6" flood-color="rgba(17,24,39,.12)"/>
  </filter>
  <pattern id="grid" width="16" height="16" patternUnits="userSpaceOnUse">
    <path d="M16 0H0V16" fill="none" stroke="rgba(251,113,133,.18)" stroke-width="1"/>
  </pattern>
  <linearGradient id="appbarGrad" x1="0" y1="0" x2="360" y2="0" gradientUnits="userSpaceOnUse">
    <stop offset="0" stop-color="#6D28D9"/>
    <stop offset="1" stop-color="#7C3AED"/>
  </linearGradient>
</defs>

<rect x="0" y="0" width="360" height="800" fill="#FFF7FB"/>
<rect x="0" y="0" width="360" height="800" fill="url(#grid)"/>

<g id="AppBar">
  <rect x="0" y="0" width="360" height="96" fill="url(#appbarGrad)"/>
  <text x="16" y="56" font-family='Inter, "Noto Sans KR", sans-serif' font-weight="900" font-size="20" fill="#FFFFFF">번호관리</text>
  <text x="344" y="56" text-anchor="end" font-family='Inter, "Noto Sans KR", sans-serif' font-weight="700" font-size="12" fill="rgba(255,255,255,.9)">완료</text>
</g>
<rect x="16" y="112" width="104" height="34" rx="17" fill="#7C3AED"/><text x="68.0" y="134" text-anchor="middle" font-family='Inter, "Noto Sans KR", sans-serif' font-weight="900" font-size="12" fill="#FFFFFF">이번주</text>
<rect x="124" y="112" width="104" height="34" rx="17" fill="#FFFFFF" stroke="#E9D5FF" stroke-width="1"/><text x="176.0" y="134" text-anchor="middle" font-family='Inter, "Noto Sans KR", sans-serif' font-weight="900" font-size="12" fill="#374151">보관함</text>
<rect x="232" y="112" width="112" height="34" rx="17" fill="#FFFFFF" stroke="#E9D5FF" stroke-width="1"/><text x="288.0" y="134" text-anchor="middle" font-family='Inter, "Noto Sans KR", sans-serif' font-weight="900" font-size="12" fill="#374151">스캔내역</text>
<g id="EditBar" filter="url(#ds)">
  <rect x="16" y="160" width="328" height="52" rx="18" fill="#FFFFFF"/>
  <text x="32" y="191" font-family='Inter, "Noto Sans KR", sans-serif' font-weight="900" font-size="14" fill="#111827">0개 선택</text>
  <rect x="214" y="174" width="54" height="26" rx="13" fill="rgba(124,58,237,.12)"/>
  <text x="241" y="192" text-anchor="middle" font-family='Inter, "Noto Sans KR", sans-serif' font-weight="900" font-size="12" fill="#7C3AED">이동</text>
  <rect x="274" y="174" width="54" height="26" rx="13" fill="rgba(225,29,72,.12)"/>
  <text x="301" y="192" text-anchor="middle" font-family='Inter, "Noto Sans KR", sans-serif' font-weight="900" font-size="12" fill="#E11D48">삭제</text>
</g>

<g id="Item1" filter="url(#ds)">
  <rect x="16" y="224" width="328" height="112" rx="18" fill="#FFFFFF"/>
  <rect x="32" y="262" width="18" height="18" rx="5" fill="#FFFFFF" stroke="#7C3AED" stroke-width="2"/>
  <text x="60" y="256" font-family='Inter, "Noto Sans KR", sans-serif' font-weight="900" font-size="14" fill="#111827">1100회 · 2026.02.22</text>
  <g transform="translate(60,270)">
<g transform="translate(0,0)">
  <circle cx="12" cy="12" r="12" fill="#60A5FA"/>
  <text x="12" y="16" text-anchor="middle" font-family="Inter" font-size="12" font-weight="900" fill="#FFFFFF">3</text>
</g>
<g transform="translate(32,0)">
  <circle cx="12" cy="12" r="12" fill="#A78BFA"/>
  <text x="12" y="16" text-anchor="middle" font-family="Inter" font-size="12" font-weight="900" fill="#FFFFFF">14</text>
</g>
<g transform="translate(64,0)">
  <circle cx="12" cy="12" r="12" fill="#FB7185"/>
  <text x="12" y="16" text-anchor="middle" font-family="Inter" font-size="12" font-weight="900" fill="#FFFFFF">25</text>
</g>
<g transform="translate(96,0)">
  <circle cx="12" cy="12" r="12" fill="#34D399"/>
  <text x="12" y="16" text-anchor="middle" font-family="Inter" font-size="12" font-weight="900" fill="#FFFFFF">31</text>
</g>
<g transform="translate(128,0)">
  <circle cx="12" cy="12" r="12" fill="#94A3B8"/>
  <text x="12" y="16" text-anchor="middle" font-family="Inter" font-size="12" font-weight="900" fill="#FFFFFF">38</text>
</g>
<g transform="translate(160,0)">
  <circle cx="12" cy="12" r="12" fill="#94A3B8"/>
  <text x="12" y="16" text-anchor="middle" font-family="Inter" font-size="12" font-weight="900" fill="#FFFFFF">42</text>
</g>
</g>
</g>

<g id="Item2" filter="url(#ds)">
  <rect x="16" y="348" width="328" height="112" rx="18" fill="#FFFFFF"/>
  <rect x="32" y="386" width="18" height="18" rx="5" fill="#7C3AED"/>
  <path d="M36 395l3 3 7-9" stroke="#FFFFFF" stroke-width="2.2" stroke-linecap="round" stroke-linejoin="round"/>
  <text x="60" y="380" font-family='Inter, "Noto Sans KR", sans-serif' font-weight="900" font-size="14" fill="#111827">1099회 · 2026.02.15</text>
  <g transform="translate(60,394)">
<g transform="translate(0,0)">
  <circle cx="12" cy="12" r="12" fill="#60A5FA"/>
  <text x="12" y="16" text-anchor="middle" font-family="Inter" font-size="12" font-weight="900" fill="#FFFFFF">7</text>
</g>
<g transform="translate(32,0)">
  <circle cx="12" cy="12" r="12" fill="#A78BFA"/>
  <text x="12" y="16" text-anchor="middle" font-family="Inter" font-size="12" font-weight="900" fill="#FFFFFF">18</text>
</g>
<g transform="translate(64,0)">
  <circle cx="12" cy="12" r="12" fill="#FB7185"/>
  <text x="12" y="16" text-anchor="middle" font-family="Inter" font-size="12" font-weight="900" fill="#FFFFFF">21</text>
</g>
<g transform="translate(96,0)">
  <circle cx="12" cy="12" r="12" fill="#34D399"/>
  <text x="12" y="16" text-anchor="middle" font-family="Inter" font-size="12" font-weight="900" fill="#FFFFFF">35</text>
</g>
<g transform="translate(128,0)">
  <circle cx="12" cy="12" r="12" fill="#94A3B8"/>
  <text x="12" y="16" text-anchor="middle" font-family="Inter" font-size="12" font-weight="900" fill="#FFFFFF">40</text>
</g>
<g transform="translate(160,0)">
  <circle cx="12" cy="12" r="12" fill="#94A3B8"/>
  <text x="12" y="16" text-anchor="middle" font-family="Inter" font-size="12" font-weight="900" fill="#FFFFFF">45</text>
</g>
</g>
</g>


<g id="BottomNav">
  <rect x="0" y="720" width="360" height="80" fill="#FFFFFF"/>
  <line x1="0" y1="720" x2="360" y2="720" stroke="#E9D5FF" stroke-width="1"/>
  
<g transform="translate(60,748)">
  <path d="M-10 2V-6L0-14L10-6V2" stroke="#6B7280" stroke-width="2.2" fill="none" stroke-linecap="round" stroke-linejoin="round"/>
  <path d="M-4 2V-4H4V2" stroke="#6B7280" stroke-width="2.2" fill="none" stroke-linecap="round" stroke-linejoin="round"/>
</g>
  <text x="60" y="784" text-anchor="middle" font-family='Inter, "Noto Sans KR", sans-serif' font-weight="600" font-size="12" fill="#6B7280">홈</text>
  
<g transform="translate(180,748)">
  <rect x="-11" y="-12" width="22" height="24" rx="5" stroke="#7C3AED" stroke-width="2.2" fill="none"/>
  <path d="M-6 -6H6M-6 -1H6M-6 4H2" stroke="#7C3AED" stroke-width="2.2" stroke-linecap="round"/>
</g>
  <text x="180" y="784" text-anchor="middle" font-family='Inter, "Noto Sans KR", sans-serif' font-weight="800" font-size="12" fill="#7C3AED">번호관리</text>
  
<g transform="translate(300,748)">
  <path d="M-6 -12H6V-6C6 -2 3 1 0 1C-3 1 -6 -2 -6 -6V-12Z" stroke="#6B7280" stroke-width="2.2" fill="none" stroke-linejoin="round"/>
  <path d="M-6 -10H-12V-8C-12 -4 -10 -2 -6 -2" stroke="#6B7280" stroke-width="2.2" fill="none" stroke-linecap="round"/>
  <path d="M6 -10H12V-8C12 -4 10 -2 6 -2" stroke="#6B7280" stroke-width="2.2" fill="none" stroke-linecap="round"/>
  <path d="M0 1V6" stroke="#6B7280" stroke-width="2.2" stroke-linecap="round"/>
  <path d="M-6 10H6" stroke="#6B7280" stroke-width="2.2" stroke-linecap="round"/>
</g>
  <text x="300" y="784" text-anchor="middle" font-family='Inter, "Noto Sans KR", sans-serif' font-weight="600" font-size="12" fill="#6B7280">당첨결과</text>
</g>

</svg>
