<?xml version="1.0" encoding="UTF-8"?>
<svg width="360" height="800" viewBox="0 0 360 800" fill="none" xmlns="http://www.w3.org/2000/svg">

<defs>
  <filter id="ds" x="-50%" y="-50%" width="200%" height="200%">
    <feDropShadow dx="0" dy="2" stdDeviation="6" flood-color="rgba(15,23,42,.12)"/>
  </filter>
</defs>

<rect x="0" y="0" width="360" height="800" fill="#F8FAFC"/>

<g id="AppBar">
  <rect x="0" y="0" width="360" height="96" fill="#4F46E5"/>
  <rect x="0" y="74" width="360" height="22" fill="#3730A3" opacity="0.18"/>
  <text x="16" y="56" font-family='Inter, "Noto Sans KR", sans-serif' font-weight="800" font-size="20" fill="#FFFFFF">번호 생성</text>
  <text x="344" y="56" text-anchor="end" font-family='Inter, "Noto Sans KR", sans-serif' font-weight="600" font-size="12" fill="rgba(255,255,255,.88)">전체 초기화</text>
</g>
<g id="Guide" filter="url(#ds)">
  <rect x="16" y="112" width="328" height="60" rx="18" fill="rgba(79,70,229,.08)"/>
  <text x="32" y="144" font-family='Inter, "Noto Sans KR", sans-serif' font-weight="600" font-size="14" fill="#475569">공을 탭해 선택 · 길게 눌러 고정</text>
</g>

<g id="GameA" filter="url(#ds)">
  <rect x="16" y="188" width="328" height="96" rx="18" fill="#FFFFFF" stroke="rgba(79,70,229,.35)" stroke-width="2"/>
  <text x="32" y="220" font-family='Inter, "Noto Sans KR", sans-serif' font-weight="800" font-size="14" fill="#0F172A">A 게임</text>
  <text x="96" y="220" font-family='Inter, "Noto Sans KR", sans-serif' font-weight="600" font-size="12" fill="#64748B">수동/반자동</text>
  <g transform="translate(32,236)">

<g transform="translate(0,0)">
  <circle cx="12" cy="12" r="12" fill="#60A5FA"/>
  <text x="12" y="16" text-anchor="middle" font-family="Inter" font-size="12" font-weight="700" fill="#FFFFFF">3</text>
</g>

<g transform="translate(32,0)">
  <circle cx="12" cy="12" r="12" fill="#A78BFA"/>
  <text x="12" y="16" text-anchor="middle" font-family="Inter" font-size="12" font-weight="700" fill="#FFFFFF">14</text>
</g>

<g transform="translate(64,0)">
  <circle cx="12" cy="12" r="12" fill="#FB7185"/>
  <text x="12" y="16" text-anchor="middle" font-family="Inter" font-size="12" font-weight="700" fill="#FFFFFF">25</text>
</g>

<g transform="translate(96,0)">
  <circle cx="12" cy="12" r="12" fill="#34D399"/>
  <text x="12" y="16" text-anchor="middle" font-family="Inter" font-size="12" font-weight="700" fill="#FFFFFF">31</text>
</g>

<g transform="translate(128,0)">
  <circle cx="12" cy="12" r="12" fill="#94A3B8"/>
  <text x="12" y="16" text-anchor="middle" font-family="Inter" font-size="12" font-weight="700" fill="#FFFFFF">38</text>
</g>

<g transform="translate(160,0)">
  <circle cx="12" cy="12" r="12" fill="#94A3B8"/>
  <text x="12" y="16" text-anchor="middle" font-family="Inter" font-size="12" font-weight="700" fill="#FFFFFF">42</text>
</g>
</g>
  <rect x="276" y="206" width="56" height="26" rx="13" fill="rgba(251,113,133,.14)"/>
  <text x="304" y="224" text-anchor="middle" font-family='Inter, "Noto Sans KR", sans-serif' font-weight="800" font-size="12" fill="#E11D48">고정 2</text>
</g>

<g id="GameB" filter="url(#ds)">
  <rect x="16" y="300" width="328" height="96" rx="18" fill="#FFFFFF"/>
  <text x="32" y="332" font-family='Inter, "Noto Sans KR", sans-serif' font-weight="800" font-size="14" fill="#0F172A">B 게임</text>
  <text x="96" y="332" font-family='Inter, "Noto Sans KR", sans-serif' font-weight="600" font-size="12" fill="#64748B">자동</text>
  <g transform="translate(32,348)">

<g transform="translate(0,0)">
  <circle cx="12" cy="12" r="12" fill="#E2E8F0"/>
  <text x="12" y="16" text-anchor="middle" font-family="Inter" font-size="12" font-weight="700" fill="#64748B">-</text>
</g>

<g transform="translate(32,0)">
  <circle cx="12" cy="12" r="12" fill="#E2E8F0"/>
  <text x="12" y="16" text-anchor="middle" font-family="Inter" font-size="12" font-weight="700" fill="#64748B">-</text>
</g>

<g transform="translate(64,0)">
  <circle cx="12" cy="12" r="12" fill="#E2E8F0"/>
  <text x="12" y="16" text-anchor="middle" font-family="Inter" font-size="12" font-weight="700" fill="#64748B">-</text>
</g>

<g transform="translate(96,0)">
  <circle cx="12" cy="12" r="12" fill="#E2E8F0"/>
  <text x="12" y="16" text-anchor="middle" font-family="Inter" font-size="12" font-weight="700" fill="#64748B">-</text>
</g>

<g transform="translate(128,0)">
  <circle cx="12" cy="12" r="12" fill="#E2E8F0"/>
  <text x="12" y="16" text-anchor="middle" font-family="Inter" font-size="12" font-weight="700" fill="#64748B">-</text>
</g>

<g transform="translate(160,0)">
  <circle cx="12" cy="12" r="12" fill="#E2E8F0"/>
  <text x="12" y="16" text-anchor="middle" font-family="Inter" font-size="12" font-weight="700" fill="#64748B">-</text>
</g>
</g>
  <text x="328" y="332" text-anchor="end" font-family='Inter, "Noto Sans KR", sans-serif' font-weight="600" font-size="12" fill="#64748B">대기중</text>
</g>

<g id="GameC" filter="url(#ds)">
  <rect x="16" y="412" width="328" height="96" rx="18" fill="#FFFFFF"/>
  <text x="32" y="444" font-family='Inter, "Noto Sans KR", sans-serif' font-weight="800" font-size="14" fill="#0F172A">C 게임</text>
  <text x="96" y="444" font-family='Inter, "Noto Sans KR", sans-serif' font-weight="600" font-size="12" fill="#64748B">자동</text>
  <g transform="translate(32,460)">

<g transform="translate(0,0)">
  <circle cx="12" cy="12" r="12" fill="#E2E8F0"/>
  <text x="12" y="16" text-anchor="middle" font-family="Inter" font-size="12" font-weight="700" fill="#64748B">-</text>
</g>

<g transform="translate(32,0)">
  <circle cx="12" cy="12" r="12" fill="#E2E8F0"/>
  <text x="12" y="16" text-anchor="middle" font-family="Inter" font-size="12" font-weight="700" fill="#64748B">-</text>
</g>

<g transform="translate(64,0)">
  <circle cx="12" cy="12" r="12" fill="#E2E8F0"/>
  <text x="12" y="16" text-anchor="middle" font-family="Inter" font-size="12" font-weight="700" fill="#64748B">-</text>
</g>

<g transform="translate(96,0)">
  <circle cx="12" cy="12" r="12" fill="#E2E8F0"/>
  <text x="12" y="16" text-anchor="middle" font-family="Inter" font-size="12" font-weight="700" fill="#64748B">-</text>
</g>

<g transform="translate(128,0)">
  <circle cx="12" cy="12" r="12" fill="#E2E8F0"/>
  <text x="12" y="16" text-anchor="middle" font-family="Inter" font-size="12" font-weight="700" fill="#64748B">-</text>
</g>

<g transform="translate(160,0)">
  <circle cx="12" cy="12" r="12" fill="#E2E8F0"/>
  <text x="12" y="16" text-anchor="middle" font-family="Inter" font-size="12" font-weight="700" fill="#64748B">-</text>
</g>
</g>
  <text x="328" y="444" text-anchor="end" font-family='Inter, "Noto Sans KR", sans-serif' font-weight="600" font-size="12" fill="#64748B">대기중</text>
</g>

<g id="CTA">
  <rect x="16" y="620" width="328" height="52" rx="18" fill="#4F46E5"/>
  <text x="180" y="653" text-anchor="middle" font-family='Inter, "Noto Sans KR", sans-serif' font-weight="900" font-size="16" fill="#FFFFFF">랜덤 재생성</text>

  <rect x="16" y="680" width="328" height="52" rx="18" fill="#FFFFFF" stroke="#E2E8F0" stroke-width="1"/>
  <text x="180" y="713" text-anchor="middle" font-family='Inter, "Noto Sans KR", sans-serif' font-weight="800" font-size="16" fill="#0F172A">이번 주 번호로 저장</text>
</g>


<g id="BottomNav">
  <rect x="0" y="720" width="360" height="80" fill="#FFFFFF"/>
  <line x1="0" y1="720" x2="360" y2="720" stroke="#E2E8F0" stroke-width="1"/>
  
<g transform="translate(60,748)">
  <path d="M-10 2V-6L0-14L10-6V2" stroke="#64748B" stroke-width="2" fill="none" stroke-linecap="round" stroke-linejoin="round"/>
  <path d="M-4 2V-4H4V2" stroke="#64748B" stroke-width="2" fill="none" stroke-linecap="round" stroke-linejoin="round"/>
</g>
  <text x="60" y="784" text-anchor="middle" font-family='Inter, "Noto Sans KR", sans-serif' font-weight="500" font-size="12" fill="#64748B">홈</text>
  
<g transform="translate(180,748)">
  <rect x="-11" y="-12" width="22" height="24" rx="4" stroke="#4F46E5" stroke-width="2" fill="none"/>
  <path d="M-6 -6H6M-6 -1H6M-6 4H2" stroke="#4F46E5" stroke-width="2" stroke-linecap="round"/>
</g>
  <text x="180" y="784" text-anchor="middle" font-family='Inter, "Noto Sans KR", sans-serif' font-weight="700" font-size="12" fill="#4F46E5">번호관리</text>
  
<g transform="translate(300,748)">
  <path d="M-6 -12H6V-6C6 -2 3 1 0 1C-3 1 -6 -2 -6 -6V-12Z" stroke="#64748B" stroke-width="2" fill="none" stroke-linejoin="round"/>
  <path d="M-6 -10H-12V-8C-12 -4 -10 -2 -6 -2" stroke="#64748B" stroke-width="2" fill="none" stroke-linecap="round"/>
  <path d="M6 -10H12V-8C12 -4 10 -2 6 -2" stroke="#64748B" stroke-width="2" fill="none" stroke-linecap="round"/>
  <path d="M0 1V6" stroke="#64748B" stroke-width="2" stroke-linecap="round"/>
  <path d="M-6 10H6" stroke="#64748B" stroke-width="2" stroke-linecap="round"/>
</g>
  <text x="300" y="784" text-anchor="middle" font-family='Inter, "Noto Sans KR", sans-serif' font-weight="500" font-size="12" fill="#64748B">당첨결과</text>
</g>

</svg>
