<?xml version="1.0" encoding="UTF-8"?>
<svg width="360" height="800" viewBox="0 0 360 800" fill="none" xmlns="http://www.w3.org/2000/svg">

<defs>
  <filter id="ds" x="-50%" y="-50%" width="200%" height="200%">
    <feDropShadow dx="0" dy="2" stdDeviation="6" flood-color="rgba(15,23,42,.12)"/>
  </filter>
</defs>

<rect x="0" y="0" width="360" height="800" fill="#F8FAFC"/>

<g id="AppBar">
  <rect x="0" y="0" width="360" height="96" fill="#4F46E5"/>
  <rect x="0" y="74" width="360" height="22" fill="#3730A3" opacity="0.18"/>
  <text x="16" y="56" font-family='Inter, "Noto Sans KR", sans-serif' font-weight="800" font-size="20" fill="#FFFFFF">당첨 결과</text>
  <text x="344" y="56" text-anchor="end" font-family='Inter, "Noto Sans KR", sans-serif' font-weight="600" font-size="12" fill="rgba(255,255,255,.88)">1100회</text>
</g>
<g id="WinningCard" filter="url(#ds)">
  <rect x="16" y="112" width="328" height="140" rx="18" fill="#FFFFFF"/>
  <text x="32" y="144" font-family='Inter, "Noto Sans KR", sans-serif' font-weight="900" font-size="18" fill="#0F172A">당첨 번호</text>
  <g transform="translate(32,158)">

<g transform="translate(0,0)">
  <circle cx="12" cy="12" r="12" fill="#60A5FA"/>
  <text x="12" y="16" text-anchor="middle" font-family="Inter" font-size="12" font-weight="700" fill="#FFFFFF">3</text>
</g>

<g transform="translate(32,0)">
  <circle cx="12" cy="12" r="12" fill="#A78BFA"/>
  <text x="12" y="16" text-anchor="middle" font-family="Inter" font-size="12" font-weight="700" fill="#FFFFFF">14</text>
</g>

<g transform="translate(64,0)">
  <circle cx="12" cy="12" r="12" fill="#FB7185"/>
  <text x="12" y="16" text-anchor="middle" font-family="Inter" font-size="12" font-weight="700" fill="#FFFFFF">25</text>
</g>

<g transform="translate(96,0)">
  <circle cx="12" cy="12" r="12" fill="#34D399"/>
  <text x="12" y="16" text-anchor="middle" font-family="Inter" font-size="12" font-weight="700" fill="#FFFFFF">31</text>
</g>

<g transform="translate(128,0)">
  <circle cx="12" cy="12" r="12" fill="#94A3B8"/>
  <text x="12" y="16" text-anchor="middle" font-family="Inter" font-size="12" font-weight="700" fill="#FFFFFF">38</text>
</g>

<g transform="translate(160,0)">
  <circle cx="12" cy="12" r="12" fill="#94A3B8"/>
  <text x="12" y="16" text-anchor="middle" font-family="Inter" font-size="12" font-weight="700" fill="#FFFFFF">42</text>
</g>
</g>
  <text x="32" y="218" font-family='Inter, "Noto Sans KR", sans-serif' font-weight="600" font-size="12" fill="#64748B">보너스</text>
  <g transform="translate(88,206)">
    <circle cx="12" cy="12" r="12" fill="#FB7185"/>
    <circle cx="12" cy="12" r="10" fill="#FFFFFF"/>
    <text x="12" y="16" text-anchor="middle" font-family="Inter" font-size="12" font-weight="900" fill="#0F172A">7</text>
  </g>
</g>

<g id="MyTicketsHeader">
  <text x="16" y="296" font-family='Inter, "Noto Sans KR", sans-serif' font-weight="900" font-size="18" fill="#0F172A">내 구매 번호</text>
  <text x="344" y="296" text-anchor="end" font-family='Inter, "Noto Sans KR", sans-serif' font-weight="700" font-size="14" fill="#4F46E5">회차 변경</text>
</g>

<g id="TicketResultA" filter="url(#ds)">
  <rect x="16" y="312" width="328" height="116" rx="18" fill="#FFFFFF"/>
  <text x="32" y="344" font-family='Inter, "Noto Sans KR", sans-serif' font-weight="900" font-size="14" fill="#0F172A">A 게임</text>
  <rect x="274" y="330" width="54" height="24" rx="12" fill="rgba(251,113,133,.14)"/>
  <text x="301" y="346" text-anchor="middle" font-family='Inter, "Noto Sans KR", sans-serif' font-weight="900" font-size="12" fill="#E11D48">5등</text>
  <g transform="translate(32,360)">

<g transform="translate(0,0)">
  <circle cx="12" cy="12" r="12" fill="#60A5FA"/>
  <text x="12" y="16" text-anchor="middle" font-family="Inter" font-size="12" font-weight="700" fill="#FFFFFF">3</text>
</g>

<g transform="translate(32,0)">
  <circle cx="12" cy="12" r="12" fill="#A78BFA"/>
  <text x="12" y="16" text-anchor="middle" font-family="Inter" font-size="12" font-weight="700" fill="#FFFFFF">14</text>
</g>

<g transform="translate(64,0)">
  <circle cx="12" cy="12" r="12" fill="#94A3B8"/>
  <text x="12" y="16" text-anchor="middle" font-family="Inter" font-size="12" font-weight="700" fill="#FFFFFF">20</text>
</g>

<g transform="translate(96,0)">
  <circle cx="12" cy="12" r="12" fill="#34D399"/>
  <text x="12" y="16" text-anchor="middle" font-family="Inter" font-size="12" font-weight="700" fill="#FFFFFF">31</text>
</g>

<g transform="translate(128,0)">
  <circle cx="12" cy="12" r="12" fill="#94A3B8"/>
  <text x="12" y="16" text-anchor="middle" font-family="Inter" font-size="12" font-weight="700" fill="#FFFFFF">38</text>
</g>

<g transform="translate(160,0)">
  <circle cx="12" cy="12" r="12" fill="#94A3B8"/>
  <text x="12" y="16" text-anchor="middle" font-family="Inter" font-size="12" font-weight="700" fill="#FFFFFF">42</text>
</g>
</g>
  <text x="32" y="416" font-family='Inter, "Noto Sans KR", sans-serif' font-weight="600" font-size="12" fill="#64748B">적중 5 + 보너스</text>
</g>

<g id="TicketResultB" filter="url(#ds)">
  <rect x="16" y="440" width="328" height="116" rx="18" fill="#FFFFFF"/>
  <text x="32" y="472" font-family='Inter, "Noto Sans KR", sans-serif' font-weight="900" font-size="14" fill="#0F172A">B 게임</text>
  <rect x="274" y="458" width="54" height="24" rx="12" fill="rgba(100,116,139,.14)"/>
  <text x="301" y="474" text-anchor="middle" font-family='Inter, "Noto Sans KR", sans-serif' font-weight="900" font-size="12" fill="#475569">낙첨</text>
  <g transform="translate(32,488)">

<g transform="translate(0,0)">
  <circle cx="12" cy="12" r="12" fill="#60A5FA"/>
  <text x="12" y="16" text-anchor="middle" font-family="Inter" font-size="12" font-weight="700" fill="#FFFFFF">7</text>
</g>

<g transform="translate(32,0)">
  <circle cx="12" cy="12" r="12" fill="#A78BFA"/>
  <text x="12" y="16" text-anchor="middle" font-family="Inter" font-size="12" font-weight="700" fill="#FFFFFF">18</text>
</g>

<g transform="translate(64,0)">
  <circle cx="12" cy="12" r="12" fill="#FB7185"/>
  <text x="12" y="16" text-anchor="middle" font-family="Inter" font-size="12" font-weight="700" fill="#FFFFFF">21</text>
</g>

<g transform="translate(96,0)">
  <circle cx="12" cy="12" r="12" fill="#34D399"/>
  <text x="12" y="16" text-anchor="middle" font-family="Inter" font-size="12" font-weight="700" fill="#FFFFFF">35</text>
</g>

<g transform="translate(128,0)">
  <circle cx="12" cy="12" r="12" fill="#94A3B8"/>
  <text x="12" y="16" text-anchor="middle" font-family="Inter" font-size="12" font-weight="700" fill="#FFFFFF">40</text>
</g>

<g transform="translate(160,0)">
  <circle cx="12" cy="12" r="12" fill="#94A3B8"/>
  <text x="12" y="16" text-anchor="middle" font-family="Inter" font-size="12" font-weight="700" fill="#FFFFFF">45</text>
</g>
</g>
  <text x="32" y="544" font-family='Inter, "Noto Sans KR", sans-serif' font-weight="600" font-size="12" fill="#64748B">적중 2</text>
</g>


<g id="BottomNav">
  <rect x="0" y="720" width="360" height="80" fill="#FFFFFF"/>
  <line x1="0" y1="720" x2="360" y2="720" stroke="#E2E8F0" stroke-width="1"/>
  
<g transform="translate(60,748)">
  <path d="M-10 2V-6L0-14L10-6V2" stroke="#64748B" stroke-width="2" fill="none" stroke-linecap="round" stroke-linejoin="round"/>
  <path d="M-4 2V-4H4V2" stroke="#64748B" stroke-width="2" fill="none" stroke-linecap="round" stroke-linejoin="round"/>
</g>
  <text x="60" y="784" text-anchor="middle" font-family='Inter, "Noto Sans KR", sans-serif' font-weight="500" font-size="12" fill="#64748B">홈</text>
  
<g transform="translate(180,748)">
  <rect x="-11" y="-12" width="22" height="24" rx="4" stroke="#64748B" stroke-width="2" fill="none"/>
  <path d="M-6 -6H6M-6 -1H6M-6 4H2" stroke="#64748B" stroke-width="2" stroke-linecap="round"/>
</g>
  <text x="180" y="784" text-anchor="middle" font-family='Inter, "Noto Sans KR", sans-serif' font-weight="500" font-size="12" fill="#64748B">번호관리</text>
  
<g transform="translate(300,748)">
  <path d="M-6 -12H6V-6C6 -2 3 1 0 1C-3 1 -6 -2 -6 -6V-12Z" stroke="#4F46E5" stroke-width="2" fill="none" stroke-linejoin="round"/>
  <path d="M-6 -10H-12V-8C-12 -4 -10 -2 -6 -2" stroke="#4F46E5" stroke-width="2" fill="none" stroke-linecap="round"/>
  <path d="M6 -10H12V-8C12 -4 10 -2 6 -2" stroke="#4F46E5" stroke-width="2" fill="none" stroke-linecap="round"/>
  <path d="M0 1V6" stroke="#4F46E5" stroke-width="2" stroke-linecap="round"/>
  <path d="M-6 10H6" stroke="#4F46E5" stroke-width="2" stroke-linecap="round"/>
</g>
  <text x="300" y="784" text-anchor="middle" font-family='Inter, "Noto Sans KR", sans-serif' font-weight="700" font-size="12" fill="#4F46E5">당첨결과</text>
</g>

</svg>
