<?xml version="1.0" encoding="UTF-8"?>
<svg width="360" height="800" viewBox="0 0 360 800" fill="none" xmlns="http://www.w3.org/2000/svg">

<defs>
  <filter id="ds" x="-50%" y="-50%" width="200%" height="200%">
    <feDropShadow dx="0" dy="2" stdDeviation="6" flood-color="rgba(15,23,42,.12)"/>
  </filter>
</defs>

<rect x="0" y="0" width="360" height="800" fill="#F8FAFC"/>

<g id="AppBar">
  <rect x="0" y="0" width="360" height="96" fill="#4F46E5"/>
  <rect x="0" y="74" width="360" height="22" fill="#3730A3" opacity="0.18"/>
  <text x="16" y="56" font-family='Inter, "Noto Sans KR", sans-serif' font-weight="800" font-size="20" fill="#FFFFFF">번호관리</text>
  <text x="344" y="56" text-anchor="end" font-family='Inter, "Noto Sans KR", sans-serif' font-weight="600" font-size="12" fill="rgba(255,255,255,.88)">필터</text>
</g>
<g id="SummaryPills">
  <rect x="16" y="112" width="104" height="34" rx="17" fill="#4F46E5"/>
  <text x="68" y="134" text-anchor="middle" font-family='Inter, "Noto Sans KR", sans-serif' font-weight="800" font-size="12" fill="#FFFFFF">이번주</text>
  <rect x="124" y="112" width="104" height="34" rx="17" fill="#FFFFFF" stroke="#E2E8F0" stroke-width="1"/>
  <text x="176" y="134" text-anchor="middle" font-family='Inter, "Noto Sans KR", sans-serif' font-weight="800" font-size="12" fill="#475569">보관함</text>
  <rect x="232" y="112" width="112" height="34" rx="17" fill="#FFFFFF" stroke="#E2E8F0" stroke-width="1"/>
  <text x="288" y="134" text-anchor="middle" font-family='Inter, "Noto Sans KR", sans-serif' font-weight="800" font-size="12" fill="#475569">스캔내역</text>
</g>

<g id="TicketList">
  <text x="16" y="176" font-family='Inter, "Noto Sans KR", sans-serif' font-weight="900" font-size="18" fill="#0F172A">저장된 번호</text>
  <text x="344" y="176" text-anchor="end" font-family='Inter, "Noto Sans KR", sans-serif' font-weight="700" font-size="14" fill="#4F46E5">편집</text>

  <!-- Item 1 -->
  <g filter="url(#ds)">
    <rect x="16" y="192" width="328" height="110" rx="18" fill="#FFFFFF"/>
    <text x="32" y="222" font-family='Inter, "Noto Sans KR", sans-serif' font-weight="900" font-size="14" fill="#0F172A">1100회 · 2026.02.22</text>
    <rect x="270" y="206" width="58" height="24" rx="12" fill="rgba(34,197,94,.14)"/>
    <text x="299" y="222" text-anchor="middle" font-family='Inter, "Noto Sans KR", sans-serif' font-weight="900" font-size="12" fill="#15803D">대기</text>
    <g transform="translate(32,236)">

<g transform="translate(0,0)">
  <circle cx="12" cy="12" r="12" fill="#60A5FA"/>
  <text x="12" y="16" text-anchor="middle" font-family="Inter" font-size="12" font-weight="700" fill="#FFFFFF">3</text>
</g>

<g transform="translate(32,0)">
  <circle cx="12" cy="12" r="12" fill="#A78BFA"/>
  <text x="12" y="16" text-anchor="middle" font-family="Inter" font-size="12" font-weight="700" fill="#FFFFFF">14</text>
</g>

<g transform="translate(64,0)">
  <circle cx="12" cy="12" r="12" fill="#FB7185"/>
  <text x="12" y="16" text-anchor="middle" font-family="Inter" font-size="12" font-weight="700" fill="#FFFFFF">25</text>
</g>

<g transform="translate(96,0)">
  <circle cx="12" cy="12" r="12" fill="#34D399"/>
  <text x="12" y="16" text-anchor="middle" font-family="Inter" font-size="12" font-weight="700" fill="#FFFFFF">31</text>
</g>

<g transform="translate(128,0)">
  <circle cx="12" cy="12" r="12" fill="#94A3B8"/>
  <text x="12" y="16" text-anchor="middle" font-family="Inter" font-size="12" font-weight="700" fill="#FFFFFF">38</text>
</g>

<g transform="translate(160,0)">
  <circle cx="12" cy="12" r="12" fill="#94A3B8"/>
  <text x="12" y="16" text-anchor="middle" font-family="Inter" font-size="12" font-weight="700" fill="#FFFFFF">42</text>
</g>
</g>
    <text x="32" y="284" font-family='Inter, "Noto Sans KR", sans-serif' font-weight="600" font-size="12" fill="#64748B">A~E 2게임 저장</text>
  </g>

  <!-- Item 2 -->
  <g filter="url(#ds)">
    <rect x="16" y="316" width="328" height="110" rx="18" fill="#FFFFFF"/>
    <text x="32" y="346" font-family='Inter, "Noto Sans KR", sans-serif' font-weight="900" font-size="14" fill="#0F172A">1099회 · 2026.02.15</text>
    <rect x="270" y="330" width="58" height="24" rx="12" fill="rgba(251,113,133,.14)"/>
    <text x="299" y="346" text-anchor="middle" font-family='Inter, "Noto Sans KR", sans-serif' font-weight="900" font-size="12" fill="#E11D48">5등</text>
    <g transform="translate(32,360)">

<g transform="translate(0,0)">
  <circle cx="12" cy="12" r="12" fill="#60A5FA"/>
  <text x="12" y="16" text-anchor="middle" font-family="Inter" font-size="12" font-weight="700" fill="#FFFFFF">7</text>
</g>

<g transform="translate(32,0)">
  <circle cx="12" cy="12" r="12" fill="#A78BFA"/>
  <text x="12" y="16" text-anchor="middle" font-family="Inter" font-size="12" font-weight="700" fill="#FFFFFF">18</text>
</g>

<g transform="translate(64,0)">
  <circle cx="12" cy="12" r="12" fill="#FB7185"/>
  <text x="12" y="16" text-anchor="middle" font-family="Inter" font-size="12" font-weight="700" fill="#FFFFFF">21</text>
</g>

<g transform="translate(96,0)">
  <circle cx="12" cy="12" r="12" fill="#34D399"/>
  <text x="12" y="16" text-anchor="middle" font-family="Inter" font-size="12" font-weight="700" fill="#FFFFFF">35</text>
</g>

<g transform="translate(128,0)">
  <circle cx="12" cy="12" r="12" fill="#94A3B8"/>
  <text x="12" y="16" text-anchor="middle" font-family="Inter" font-size="12" font-weight="700" fill="#FFFFFF">40</text>
</g>

<g transform="translate(160,0)">
  <circle cx="12" cy="12" r="12" fill="#94A3B8"/>
  <text x="12" y="16" text-anchor="middle" font-family="Inter" font-size="12" font-weight="700" fill="#FFFFFF">45</text>
</g>
</g>
    <text x="32" y="408" font-family='Inter, "Noto Sans KR", sans-serif' font-weight="600" font-size="12" fill="#64748B">QR 스캔 1장</text>
  </g>
</g>

<g id="FAB">
  <circle cx="316" cy="664" r="26" fill="#FB7185"/>
  <path d="M316 652v24M304 664h24" stroke="#FFFFFF" stroke-width="3" stroke-linecap="round"/>
</g>


<g id="BottomNav">
  <rect x="0" y="720" width="360" height="80" fill="#FFFFFF"/>
  <line x1="0" y1="720" x2="360" y2="720" stroke="#E2E8F0" stroke-width="1"/>
  
<g transform="translate(60,748)">
  <path d="M-10 2V-6L0-14L10-6V2" stroke="#64748B" stroke-width="2" fill="none" stroke-linecap="round" stroke-linejoin="round"/>
  <path d="M-4 2V-4H4V2" stroke="#64748B" stroke-width="2" fill="none" stroke-linecap="round" stroke-linejoin="round"/>
</g>
  <text x="60" y="784" text-anchor="middle" font-family='Inter, "Noto Sans KR", sans-serif' font-weight="500" font-size="12" fill="#64748B">홈</text>
  
<g transform="translate(180,748)">
  <rect x="-11" y="-12" width="22" height="24" rx="4" stroke="#4F46E5" stroke-width="2" fill="none"/>
  <path d="M-6 -6H6M-6 -1H6M-6 4H2" stroke="#4F46E5" stroke-width="2" stroke-linecap="round"/>
</g>
  <text x="180" y="784" text-anchor="middle" font-family='Inter, "Noto Sans KR", sans-serif' font-weight="700" font-size="12" fill="#4F46E5">번호관리</text>
  
<g transform="translate(300,748)">
  <path d="M-6 -12H6V-6C6 -2 3 1 0 1C-3 1 -6 -2 -6 -6V-12Z" stroke="#64748B" stroke-width="2" fill="none" stroke-linejoin="round"/>
  <path d="M-6 -10H-12V-8C-12 -4 -10 -2 -6 -2" stroke="#64748B" stroke-width="2" fill="none" stroke-linecap="round"/>
  <path d="M6 -10H12V-8C12 -4 10 -2 6 -2" stroke="#64748B" stroke-width="2" fill="none" stroke-linecap="round"/>
  <path d="M0 1V6" stroke="#64748B" stroke-width="2" stroke-linecap="round"/>
  <path d="M-6 10H6" stroke="#64748B" stroke-width="2" stroke-linecap="round"/>
</g>
  <text x="300" y="784" text-anchor="middle" font-family='Inter, "Noto Sans KR", sans-serif' font-weight="500" font-size="12" fill="#64748B">당첨결과</text>
</g>

</svg>
